<?xml version="1.0" encoding="utf-8"?><!-- Generator: Adobe Illustrator 28.1.0, SVG Export Plug-In . SVG Version: 6.00 Build 0)  --><svg version="1.1" id="图层_1" xmlns="http://www.w3.org/2000/svg" xmlns:xlink="http://www.w3.org/1999/xlink" x="0px" y="0px"	 viewBox="0 0 120 120" style="enable-background:new 0 0 120 120;" xml:space="preserve"><style type="text/css">	.ULcertified1-st0{fill:#CE1642;}</style><g><g><path class="ULcertified1-st0" d="M59.85,8.49c13.1,0,26.2,0.02,39.29-0.01c5.08-0.01,9.4,1.82,13.27,5.02c2.73,2.26,4.6,5.1,5.98,8.29			c0.91,2.11,1.41,4.36,1.42,6.65c0.04,10.46,0.01,20.92,0.04,31.38c0.03,9.91,0.15,19.83,0.14,29.74c0,2.82-0.28,5.63-1.26,8.33			c-1.78,4.92-4.91,8.72-9.37,11.43c-2.38,1.45-5,2.27-7.7,2.81c-0.86,0.17-1.78,0.1-2.67,0.1c-13.64,0-27.28,0-40.92,0			c-12.44,0-24.88,0.01-37.32-0.01c-5.13-0.01-9.57-1.86-13.46-5.16c-3.48-2.95-5.67-6.69-6.85-11.05			c-0.24-0.89-0.31-1.82-0.41-2.74c-0.06-0.54-0.03-1.08-0.03-1.63c0-20.96,0.03-41.92-0.02-62.88c-0.01-3.5,1.01-6.64,2.69-9.6			c2.25-4,5.51-6.96,9.68-8.86c2.48-1.13,5.06-1.84,7.84-1.83C33.42,8.51,46.64,8.49,59.85,8.49z M59.93,21.56			c-14.13-0.18-25.72,11.64-25.69,25.62c0.03,14.06,11.3,25.77,25.79,25.68c14.27-0.09,25.49-11.28,25.52-25.71			C85.58,32.83,74.01,21.53,59.93,21.56z M95.4,92.53c0,1.82-0.01,3.64,0,5.46c0.01,1.09,0.09,1.21,1.2,1.19			c1.58-0.03,3.18-0.02,4.74-0.24c2.04-0.28,3.67-1.27,4.68-3.19c0.81-1.55,0.89-3.17,0.67-4.84c-0.42-3.09-3.1-4.78-5.67-4.75			c-1.43,0.02-2.86-0.01-4.3,0c-1.31,0-1.31,0.01-1.32,1.38C95.4,89.2,95.4,90.86,95.4,92.53z M37.26,92.55c0,0.89,0,1.78,0,2.67			c0,0.89-0.01,1.78,0,2.67c0.01,1.01,0.2,1.26,0.93,1.24c0.96-0.04,1.14-0.23,1.15-1.29c0.01-0.97,0-1.94,0.01-2.9			c0-0.31-0.01-0.62,0.04-0.93c0.05-0.31,0.26-0.36,0.5-0.17c0.15,0.12,0.26,0.28,0.38,0.43c0.97,1.3,1.95,2.59,2.9,3.91			c0.52,0.72,1.14,1.16,2.06,0.98c0.25-0.05,0.49-0.16,0.74-0.24c-0.1-0.27-0.13-0.59-0.3-0.8c-1.03-1.35-2.04-2.72-3.17-3.99			c-0.68-0.77-0.37-0.93,0.34-1.16c0.15-0.05,0.31-0.04,0.45-0.1c0.98-0.43,1.86-1.06,2.28-2.04c0.89-2.1-0.35-4.27-2.63-4.59			c-1.6-0.23-3.22-0.42-4.85-0.08c-0.78,0.16-0.81,0.13-0.82,0.95C37.25,88.91,37.26,90.73,37.26,92.55z M84.27,92.52			C84.26,92.52,84.26,92.52,84.27,92.52c0,1.82-0.01,3.64,0,5.46c0.01,0.93,0.03,1.05,0.95,1.09c1.85,0.09,3.71,0.07,5.57,0.08			c0.41,0,0.62-0.24,0.66-0.66c0.07-0.67-0.11-0.91-0.82-0.93c-1.05-0.02-2.09,0-3.14-0.01c-1.05-0.01-1.15-0.11-1.17-1.11			c-0.01-0.74-0.02-1.47,0-2.21c0.02-0.95,0.12-1.05,1.09-1.07c1.01-0.02,2.01,0.01,3.02-0.01c0.66-0.02,0.8-0.22,0.77-0.86			c-0.03-0.57-0.35-0.72-0.84-0.71c-1.01,0-2.01,0.01-3.02,0c-0.95-0.01-1-0.06-1.02-0.97c-0.01-0.62-0.01-1.24,0-1.86			c0.02-1.03,0.1-1.12,1.13-1.14c1.08-0.02,2.17,0.01,3.25-0.02c0.62-0.02,0.75-0.2,0.74-0.77c-0.01-0.61-0.41-0.66-0.87-0.66			c-1.82,0-3.64-0.01-5.46,0.01c-0.77,0.01-0.85,0.09-0.86,0.89C84.25,88.88,84.27,90.7,84.27,92.52z M26.14,92.47			C26.14,92.47,26.14,92.47,26.14,92.47c0,1.9-0.01,3.8,0,5.69c0.01,0.75,0.06,0.8,0.8,0.82c0.97,0.03,1.94,0.01,2.9,0.01			c0.97,0,1.94,0,2.9-0.01c0.46,0,0.58-0.29,0.58-0.7c0-0.39-0.1-0.7-0.56-0.72c-0.27-0.01-0.54-0.01-0.81-0.02			c-0.93,0-1.86,0.01-2.79-0.02c-0.49-0.01-0.95-0.13-0.96-0.76c-0.01-0.97-0.01-1.94,0.01-2.9c0.01-0.47,0.29-0.69,0.75-0.7			c0.27-0.01,0.54-0.01,0.81-0.01c0.89,0,1.78,0,2.67,0c0.43,0,0.75-0.11,0.81-0.62c0.07-0.66-0.12-0.93-0.81-0.95			c-1.08-0.03-2.17,0-3.25-0.01c-0.88-0.01-0.96-0.09-0.99-0.9c-0.02-0.54-0.01-1.08,0-1.63c0.01-1.35,0.09-1.43,1.46-1.45			c0.27,0,0.54,0,0.81,0c0.77,0,1.55,0.02,2.32-0.02c0.6-0.04,0.94-0.61,0.6-1.04c-0.17-0.22-0.59-0.35-0.89-0.36			c-1.78-0.03-3.56-0.03-5.34-0.01c-1,0.01-1.01,0.03-1.01,1.08C26.13,88.99,26.14,90.73,26.14,92.47z M20.11,85.88			c0,0.03,0,0.06-0.01,0.08c-0.39,0-0.78-0.04-1.16,0.01c-1.81,0.2-3.42,0.89-4.46,2.39c-1.77,2.56-1.84,5.32-0.54,8.13			c0.97,2.09,4.19,3.15,6.28,2.83c0.65-0.1,1.29-0.24,1.93-0.37c0.64-0.13,0.84-0.55,0.7-1.34c-0.13-0.68-0.57-0.48-0.98-0.36			c-1.34,0.41-2.67,0.24-3.98-0.13c-0.86-0.25-1.46-0.83-1.89-1.61c-0.9-1.64-0.83-3.38-0.3-5.06c0.57-1.84,2.13-2.83,4.07-2.84			c0.61,0,1.23,0.1,1.84,0.2c0.96,0.17,0.95,0.19,1.14-0.69c0.15-0.75,0.13-0.84-0.68-1C21.42,85.99,20.76,85.96,20.11,85.88z			 M67.28,92.47c0,1.82-0.01,3.64,0.01,5.46c0,0.3,0.01,0.81,0.15,0.86c0.45,0.17,0.96,0.23,1.44,0.21c0.53-0.03,0.48-0.51,0.48-0.9			c0-1.2-0.01-2.4,0-3.6c0.01-0.99,0.14-1.11,1.16-1.13c0.97-0.02,1.94,0.02,2.9-0.02c0.66-0.02,0.9-0.37,0.79-0.98			c-0.09-0.5-0.45-0.58-0.86-0.58c-1.01,0-2.01,0.01-3.02-0.01c-0.76-0.02-0.94-0.17-0.97-0.85c-0.04-0.81,0-1.62-0.01-2.44			c-0.01-0.52,0.24-0.8,0.73-0.86c0.31-0.04,0.62-0.03,0.93-0.03c0.93-0.01,1.86-0.01,2.79-0.01c0.5,0,0.66-0.27,0.67-0.74			c0-0.59-0.35-0.7-0.83-0.7c-1.78,0-3.56-0.01-5.34,0c-0.99,0.01-1,0.03-1.01,1.08C67.28,88.99,67.28,90.73,67.28,92.47z			 M54.04,93.53c0-1.35,0-2.71,0-4.06c0-1.69,0-1.69,1.64-1.69c0.5,0,1.01,0.02,1.51-0.01c0.62-0.04,0.77-0.27,0.78-0.9			c0-0.59-0.34-0.7-0.82-0.7c-2.71,0.01-5.41,0.01-8.12,0c-0.5,0-0.82,0.13-0.81,0.71c0.01,0.64,0.15,0.84,0.79,0.88			c0.46,0.03,0.93,0.01,1.39,0.01c1.75,0,1.75,0,1.75,1.71c0,2.74,0,5.49,0,8.23c0,1.25,0.04,1.28,1.17,1.31			c0.7,0.02,0.71-0.01,0.72-1.32C54.04,96.31,54.04,94.92,54.04,93.53z M77.76,92.7C77.76,92.7,77.76,92.7,77.76,92.7			c0,1.82-0.01,3.64,0,5.46c0.01,0.8,0.23,0.99,1.06,1.01c0.77,0.02,0.99-0.15,1-0.91c0.02-3.75,0.01-7.51,0-11.26			c0-0.22-0.07-0.61-0.16-0.63c-0.51-0.1-1.05-0.16-1.57-0.1c-0.14,0.02-0.31,0.49-0.32,0.75C77.74,88.9,77.76,90.8,77.76,92.7z			 M62.86,92.57c0-0.7,0-1.39,0-2.09c0-1.16,0.02-2.32-0.02-3.48c-0.01-0.26-0.15-0.66-0.34-0.75c-0.98-0.47-1.72,0.01-1.72,1.09			c-0.01,3.52,0,7.04,0,10.56c0,0.27-0.03,0.56,0.05,0.8c0.07,0.18,0.28,0.38,0.47,0.42c0.93,0.22,1.56-0.28,1.56-1.21			C62.86,96.13,62.86,94.35,62.86,92.57z"/><path class="ULcertified1-st0" d="M38.63,47.6c-0.09-5.45,1.58-9.83,4.61-13.68c2.64-3.36,6.09-5.68,10.15-7.06c3.03-1.03,6.19-1.19,9.3-0.81			c3.69,0.45,7.1,1.85,10.08,4.15c4.45,3.44,7.19,7.96,8.14,13.48c0.3,1.76,0.39,3.58,0.19,5.42c-0.23,2.11-0.72,4.1-1.48,6.05			c-0.83,2.11-1.98,4.03-3.46,5.74c-1.63,1.88-3.46,3.53-5.65,4.76c-2.7,1.52-5.55,2.42-8.66,2.71c-2.04,0.18-4.02,0.08-5.99-0.27			c-3.3-0.58-6.26-1.99-8.92-4c-2.76-2.09-4.85-4.74-6.33-7.88C39.25,53.31,38.52,50.31,38.63,47.6z M59.34,41.35			c0-1.28,0-2.56,0-3.83c0-1.08,0.01-2.17-0.01-3.25c-0.02-0.79-0.07-0.84-0.88-0.86c-0.81-0.02-1.63-0.01-2.44,0			c-1.03,0.01-1.03,0.02-1.05,1.04c-0.01,0.27,0,0.54,0,0.81c0,4.1,0,8.21,0,12.31c0,0.39,0.01,0.78-0.06,1.16			c-0.14,0.78-0.79,1.37-1.48,1.42c-0.86,0.06-1.47-0.34-1.72-1.23c-0.14-0.51-0.21-1.06-0.21-1.6c-0.02-4.14-0.01-8.29-0.01-12.43			c0-0.31,0.05-0.64-0.04-0.92c-0.06-0.21-0.3-0.51-0.48-0.52c-1.08-0.05-2.17-0.04-3.25-0.02c-0.42,0.01-0.61,0.29-0.62,0.69			c-0.01,0.31-0.01,0.62-0.01,0.93c0,3.95-0.02,7.9,0.01,11.85c0.01,0.88,0.13,1.77,0.32,2.63c0.54,2.35,2.4,3.83,4.83,3.89			c0.74,0.02,1.47,0.02,2.21-0.01c2.26-0.09,4.16-1.64,4.66-3.83c0.14-0.6,0.21-1.22,0.21-1.84C59.36,45.61,59.34,43.48,59.34,41.35			z M62.84,51.06c0,2.82,0,5.65,0,8.47c0,0.27,0.01,0.54,0,0.81c-0.02,0.5,0.23,0.68,0.71,0.68c2.79-0.01,5.57-0.01,8.36,0			c0.48,0,0.71-0.17,0.71-0.67c-0.01-0.85,0.01-1.7,0-2.55c-0.02-0.86-0.05-0.89-0.95-0.91c-1.16-0.02-2.32,0.01-3.48-0.01			c-0.89-0.01-1.06-0.19-1.11-1.09c-0.02-0.27,0-0.54,0-0.81c0-3.79,0-7.58,0-11.37c0-0.43,0-0.85,0-1.28			c-0.01-1.25-0.01-1.25-1.32-1.26c-0.58,0-1.16,0-1.74,0c-1.15,0.01-1.16,0.02-1.16,1.17C62.83,45.18,62.84,48.12,62.84,51.06z"/><path class="ULcertified1-st0" d="M97.35,92.68c0-1.43,0.02-2.86-0.01-4.28c-0.01-0.38,0.12-0.58,0.44-0.71c1.69-0.66,5.18,0.38,6.07,1.89			c1.16,1.95,1.12,4.7-0.42,6.39c-0.35,0.39-0.81,0.71-1.28,0.94c-1.17,0.59-2.45,0.7-3.73,0.62c-0.76-0.05-0.94-0.25-0.95-1.01			c-0.02-1.28-0.01-2.55-0.01-3.83C97.43,92.68,97.39,92.68,97.35,92.68z"/><path class="ULcertified1-st0" d="M39.36,89.82c0-0.5-0.01-1.01,0-1.51c0.01-0.4,0.19-0.71,0.6-0.71c0.69-0.01,1.41-0.05,2.07,0.09			c1.13,0.24,1.59,0.96,1.55,2.12c-0.04,1.08-0.75,2.02-1.77,2.14c-0.75,0.08-1.52-0.05-2.28-0.09c-0.09-0.68-0.18-1.35-0.28-2.03			C39.29,89.83,39.33,89.82,39.36,89.82z"/></g></g></svg>