<?xml version="1.0" encoding="utf-8"?>
<!-- Generator: Adobe Illustrator 28.1.0, SVG Export Plug-In . SVG Version: 6.00 Build 0)  -->
<svg version="1.1" id="图层_1" xmlns="http://www.w3.org/2000/svg" xmlns:xlink="http://www.w3.org/1999/xlink" x="0px" y="0px"
	 viewBox="0 0 24 24" style="enable-background:new 0 0 24 24;" xml:space="preserve">
<style type="text/css">
	.st0{fill:#FF5500;}
</style>
<path class="st0" d="M24,14.16c-0.05,1.8-1.61,3.17-3.4,3.17h-8.18c-0.37,0-0.68-0.31-0.68-0.68V7.86c-0.02-0.31,0.16-0.6,0.45-0.72
	c0,0,0.75-0.51,2.33-0.51c0.97,0,1.93,0.26,2.76,0.76c1.31,0.77,2.25,2.05,2.57,3.54c0.28-0.08,0.57-0.12,0.87-0.12
	c0.88,0,1.73,0.36,2.35,0.99S24.02,13.28,24,14.16z M10.72,8.42c0.25,2.98,0.43,5.7,0,8.67c0,0.15-0.12,0.26-0.26,0.26
	c-0.15,0-0.27-0.12-0.27-0.26l0,0c-0.4-2.95-0.22-5.72,0-8.67c0-0.15,0.12-0.27,0.26-0.27C10.6,8.16,10.72,8.27,10.72,8.42z
	 M9.07,9.45c0.28,2.66,0.37,4.99-0.01,7.66c-0.02,0.15-0.16,0.26-0.31,0.24c-0.13-0.02-0.23-0.12-0.24-0.24
	c-0.33-2.63-0.26-5.02,0-7.66c0-0.15,0.12-0.28,0.28-0.28S9.07,9.29,9.07,9.45z M7.41,9.19c0.27,2.73,0.39,5.17,0,7.9
	c0,0.15-0.12,0.27-0.27,0.27c-0.15,0-0.27-0.12-0.27-0.27c-0.38-2.69-0.26-5.21,0-7.9c0-0.15,0.12-0.27,0.27-0.27
	C7.29,8.93,7.41,9.04,7.41,9.19z M5.76,9.96c0.32,2.37,0.32,4.78-0.01,7.15c-0.01,0.15-0.14,0.26-0.29,0.25
	c-0.13-0.01-0.24-0.12-0.25-0.25c-0.31-2.37-0.31-4.77,0-7.15c0-0.15,0.12-0.27,0.28-0.27S5.76,9.81,5.76,9.96z M4.09,11.73
	c0.42,1.86,0.23,3.5-0.03,5.39c0,0.14-0.12,0.26-0.26,0.26c-0.14,0-0.26-0.12-0.26-0.26c-0.21-1.86-0.4-3.55,0-5.39
	c0.01-0.15,0.14-0.26,0.29-0.26C3.97,11.48,4.08,11.59,4.09,11.73L4.09,11.73z M2.44,11.46c0.39,1.9,0.26,3.51-0.01,5.41
	c-0.03,0.28-0.51,0.28-0.54,0c-0.24-1.88-0.35-3.54-0.01-5.41C1.9,11.3,2.04,11.2,2.2,11.22C2.32,11.24,2.42,11.33,2.44,11.46z
	 M0.77,12.37c0.4,1.27,0.26,2.29-0.03,3.57c0,0.14-0.12,0.26-0.26,0.26c-0.14,0-0.26-0.12-0.26-0.26c-0.24-1.26-0.35-2.31-0.02-3.57
	c0.02-0.16,0.16-0.27,0.31-0.25C0.65,12.13,0.76,12.23,0.77,12.37z"/>
</svg>
